<?xml version="1.0" encoding="utf-8"?>
<!-- Generator: Adobe Illustrator 19.0.0, SVG Export Plug-In . SVG Version: 6.00 Build 0)  -->
<svg version="1.1" id="layer" xmlns="http://www.w3.org/2000/svg" xmlns:xlink="http://www.w3.org/1999/xlink" x="0px" y="0px"
	 viewBox="-153 -46 652 652" style="enable-background:new -153 -46 652 652;" xml:space="preserve">
<style type="text/css">
	.st0{fill:#FFC423;}
</style>
<path id="XMLID_8_" class="st0" d="M176.7,59.1c-12.8,0-25,1.3-36.8,4c-33.2,7.6-55.1,27.5-83.5,41.4c-6.3,9.8-17.1,15.1-25.7,22.8
	c-4.1,3.6-7.4,9.3-12.1,13.6c-4.6,4.1-10.8,7-14.3,11.4c-5.9,7.5-11.5,20.3-15,30.7c-3.7,11.1-4.7,23.6-7.8,35.7
	c-1,3.8-3.4,7.1-4.3,10.7c-2.3,9.4-1.2,18.4-2.1,29.3c-1.2,14.7-2.4,29.1-2.1,43.5c0.2,14.4,3.8,27,5,40c6,10.7,7.3,23.5,10.7,35
	c1.5,5.1,6.1,8.9,7.8,13.6c1.4,3.7,1.2,7.9,2.9,11.4c2.4,5.1,6.8,8.8,9.3,13.6c1.6,3.2,1.9,6.9,3.6,10c4.5,8.1,11.9,13.2,16.4,20.7
	c15.6,9.6,28.3,21.4,44.3,30c3.8,2,7.7,2.5,11.4,4.3c3.2,1.6,5.7,5,9.3,6.4c2.9,1.1,6.9,1,10.7,2.1c3.1,0.9,6.3,3.4,9.3,4.3
	c11.2,3.1,21.7,1.3,33.5,2.9c4.6,0.6,8.9,3.3,13.6,3.6c0.3,0,0.6,0,0.9,0c4.8,0,9.6-1.8,14.8-2.2c15.1-1.2,23.4-1.9,35-6.4
	c8-3.1,16.1-5.7,22.8-8.6c6.9-3,13.3-8.9,20.7-13.6c6.9-4.3,15-8.2,21.4-12.8c8.7-6.3,17.1-16.5,25-23.5c2.9-2.6,6.8-3.9,10-6.4
	c4.2-3.3,7.5-9.8,12.1-13.6c3.1-2.5,7-3.4,9.3-5.7c3.8-3.9,7.1-11.1,10.7-16.4c8.2-12.1,13.6-22,18.6-37.1
	c6.1-18.8,13.5-43.5,12.1-67.8c-0.3-6-2.9-11.9-4.3-18.6c-1.5-7.1-1.3-14.8-2.9-20.7c-6.1-23-19.2-47.1-28.5-66.4
	c-4-8.3-6.5-16.9-10-23.5c-3.4-6.4-9.1-12.3-13.6-19.3c-16-25.2-31.6-46.3-58.5-60.7c-4.4-2.3-8.9-5.7-12.8-7.1
	c-3.2-1.2-7.2-0.4-10.7-1.4c-3.8-1.1-7.1-4-10.7-5c-6.4-1.7-15.1-2-23.6-2.9C190.9,59.5,183.7,59.1,176.7,59.1 M143.5,529.6
	c-1.1,0-2.1,0-3.1,0c-7.3-0.3-19.6-4.7-27.6-7.7c-9.2-3.4-18-5-26.9-7.7c-11.9-3.6-26.5-13.3-38.4-20c-9.3-5.2-22.7-14.7-30.7-21.5
	c-7.1-6-15.4-16.5-22.3-26.1c-11.9-16.6-16.9-28.8-25.3-49.1c-5.7-13.8-12.8-30.2-16.9-46.8c-1.1-4.6-0.5-9.7-1.5-14.6
	c-2-9.3-4.9-20-5.4-33c-0.3-7.7,1.5-16.6,1.5-25.3c0-9.3-1.6-18.6-0.8-25.3c1.4-11.4,6.6-28.6,9.2-40.7c1-4.6,0.5-9.9,1.5-14.6
	c1.8-8.5,6.7-19.2,10.7-28.4c8-18.2,13.2-29.8,25.3-43.7c9.8-11.3,18.9-19.4,31.5-28.4c6-4.3,10.4-10.4,15.4-13.8
	c4.4-3,10.9-6.2,16.1-9.2c5.4-3,10.1-7.7,14.6-10c2.9-1.4,7-1.7,10-3.1c8.6-3.9,15.6-10.9,23.8-14.6c10.7-4.8,22.8-7,35.3-10
	c6.7-1.6,12.8-5.5,20-6.1c1.4-0.1,3-0.2,4.6-0.2c10.7,0,24.7,2.8,38.4,4c2.1,0.2,4.2,0.2,6.3,0.2c0.5,0,1,0,1.4,0c0.5,0,0.9,0,1.4,0
	c2.9,0,5.8,0.1,8.5,0.6c3.6,0.7,6.8,3,10.8,3.8c1.4,0.3,2.9,0.4,4.4,0.4c0.6,0,1.2,0,1.8,0c0.6,0,1.2,0,1.7,0c1.5,0,3,0.1,4.3,0.4
	c10.9,2.8,25.2,13,36.9,21.5c20,14.5,32.8,28.4,47.6,48.4c10.3,13.9,17.3,25.8,26.1,42.2c3.6,6.7,8.4,13.7,10.7,19.2
	c1.6,3.8,1.5,8.3,3.1,12.3c6.7,17,17.6,33,22.3,49.1c1.4,4.7,0.4,10.3,1.5,16.1c0.8,4,3.8,7.7,4.6,11.5c1.4,6.9,0.8,16,2.3,23.8
	c1.6,8.5,3.6,16.6,3.1,22.3c-0.5,5-3.8,9.1-4.6,13.8c-0.7,4.3,0,8.8-0.8,13c-1.9,10.7-6.4,21.8-10.8,32.2
	c-4.3,10.2-7.5,21.4-12.3,29.9c-8.1,14.6-22,24.6-29.9,39.2c-26,24.7-55.8,45.5-83.7,68.3c-16.9,5.1-30.4,15-46.1,20
	c-12.4,4-30.6,6.7-48.4,6.9C157.8,528.9,150.5,529.6,143.5,529.6"/>
<path id="XMLID_2_" d="M71.4,285.1c-2.5-1-5.2-1.8-7.1-2.7c-0.9-0.4-1.6-0.8-1.9-1v-0.1c0,0,0.2-0.3,1.3-0.6
	c1.6-0.5,4.2-0.8,6.7-1.3c1.3-0.3,2.6-0.6,4-1.5c1.4-0.8,2.9-2.8,3-5l0-0.5c0.1-2.2-1.3-4.7-3.1-5.7c-1.8-1-3.4-1.2-5-1.2
	c-4.2,0.1-8.2,1.4-10.1,2.3c-3.4,1.8-9.3,5.7-9.9,13.1c0,0.1,0,0.4,0,0.7c-0.1,7.8,5.9,11.7,9.6,13.2c2.3,1,4.6,1.5,6.5,2.2
	c0.9,0.3,1.6,0.7,2,1c0.4,0.3,0.3,0.3,0.3,0.3c0.2,0.7,0.3,1.3,0.3,1.8c0.2,2.2-2.1,4.2-6.9,6.5c-4.6,2.3-10.3,3.7-13.9,8.7l-0.6,1
	v3.6l0.3,0.7c1,3,4.2,4.4,6.5,4.4l0.4,0c5.2-0.2,9.9-3.2,12.2-4.5c5.6-3.7,16.5-10.6,16.9-22c0-0.4,0-0.7,0-1.1
	C82.3,289.9,76.1,286.8,71.4,285.1 M254.4,263.9l2.5,0.6c0.9,0.2,1.8,0.3,2.6,0.3h0.1c8-0.4,11.2-7.2,13.4-9l-2.7-2.9l2.7,2.9
	c2.8-2.9,8.8-5.8,11.2-12.6l1.4-4.4L281,238c-0.5-0.1-1.1-0.1-1.6-0.1c-7.3,0.2-12.7,5.6-16.5,8.8c-3.6,3.5-8.6,7.3-9,13.8
	c0,0,0,0.4,0.1,0.9L254.4,263.9z M287.8,306.2c-0.8-2.6-4-4.5-6.2-4.3c-3.4,0.2-5.5,1.5-6.3,1.5v0l0,0l0,0v0c-0.7,0.1-1.4,0.1-2,0.1
	c-4.3-0.2-5.9-1.4-7.6-4.1c3.3-3.6,8.3-9.5,8.6-16.8c0-2.8-1.1-5.9-3.4-8.1c-2.3-2.2-5.2-3-7.8-2.9c-2.2,0-4.4,0.5-6.3,1.4
	c-6.3,3.2-7.9,10.3-8,16.6c0,2.4,0.3,4.8,0.8,7.1c-3.8,4.1-9.8,6.3-15.8,6.3c-1.7,0-3.5-0.2-5.1-0.5c-8-2.7-13.4-14.6-16.2-24.3
	c4.3-5.4,13.2-12.9,13.4-25.7c0-1.6-0.1-3.2-0.4-4.9c-1-5.1-4.6-10.2-10.8-10.9c-0.4,0-0.9-0.1-1.4-0.1c-11.9,0.5-16.9,12-20,18.6
	c-2,4.6-5,9.7-6.3,14.8c-0.3,1.3-0.4,2.4-0.4,3.3v1c0,0.6,0,1.1-0.1,1.6c-0.7,3.6-2.4,7.8-3.9,11.9c-0.5,1.7-1.1,3.2-1.6,4.6
	c-3-9.6-3.3-24.5-3.2-40.5c0-12,0.3-26.3,2-37.5c0.2-1.4,1.1-5.2,1.1-8.5c0-1.2-0.1-2.3-0.7-3.8c-0.4-1.4-2.6-3.4-4.8-3.2
	c-1.8,0-3,0.7-4.2,1.5l-0.3,0.2l-0.3,0.3c-5.8,6.7-5.5,17.6-6.4,27.6c-0.3,5.8-0.5,11.8-0.5,17.7c0,10.8,0.6,21.7,1.7,32.1
	c-3.8,14.5-9.3,24.3-23.9,24.8c-6.2-1.2-9.3-11.6-13.6-20.4l-0.7-1.4l-1.5-0.5c-1.5-0.5-2.5-1.6-4-3.7c-1.4-1.9-3.3-5-7.3-6.4
	c-2-0.7-4.1-1.1-6.1-1.1c-14.5,0.6-21.2,16.3-21.3,28.5c0,1.5,0.1,3,0.4,4.5c1.1,6.5,6.5,12,13.6,12.6l0.1,0h1.2
	c10.1-0.2,15.4-7.1,19.2-13.5c2.7,4.2,6,9.1,11.8,11.9l0.1,0.5l2.5,0.7c1.1,0.3,1.9,0.3,2.2,0.3c0.1,0,0.9,0.3,2.1,0.4
	c1.1,0.1,2.1,0.2,3.2,0.2c2.3,0,4.7-0.2,7.1-0.9c1.8-0.4,3.6-0.8,5.2-1.6c5.8-2.6,10.2-6.6,13.7-11.5c0.2,0.4,0.3,0.9,0.5,1.3
	c1.4,3.5,3.8,7.5,8.9,8l0.1,0h0.4c6.1-0.4,8.7-5.1,10.4-7.6c3.2-5.7,4.4-13.2,6.1-18.3l0.7,0c1.4,0,2.7-0.2,3.8-0.5
	c3.4,9.6,8.2,20.1,17.2,26.2l-0.3,0.5l4.3,1.8c1.1,0.5,2,0.7,2.5,0.8c1.6,0.5,3.3,0.9,5,1.1c0.6,0.1,1.4,0.2,2.4,0.3l0.2,0.2l1.4,0
	l0.6,0c0.8,0,1.6-0.1,2.4-0.2c6.9-0.5,14.1-3,19.7-7.5c2.9,3.4,7.1,6.6,12.5,7.6c1.5,0.3,3.1,0.4,4.7,0.4c5.3-0.1,11-1.3,14.6-6
	l1.3-1.8L287.8,306.2z M106.2,298.3c-0.8,0.9-4.7,3-5.1,2.7l0,0c-0.3,0-1.1-0.6-1.2-3.9c-0.2-4.1,2.4-10.3,3.2-10.7
	c0.9-0.9,2.1-1.5,4.3-1.8c0.7-0.1,1.3-0.2,1.7-0.2c1.6,0,1.9,0.4,2,0.5c0.1,0.1,0.4,0.6,0.4,1.8C111.7,290,108.4,296.5,106.2,298.3
	 M208.1,263.9c-1-1.4-2.2-2.6-3.4-3.5c0.8-2.2,1.7-4.3,2.7-5.7c1.3-1.7,2.2-2.5,3.8-2.9c0.2,0.8,0.2,1.6,0.2,2.4
	C211.5,257.6,210,261.2,208.1,263.9"/>
</svg>
